<?xml version="1.0" standalone="no"?>
<!DOCTYPE svg PUBLIC "-//W3C//DTD SVG 20010904//EN"
 "http://www.w3.org/TR/2001/REC-SVG-20010904/DTD/svg10.dtd">
<svg version="1.0" xmlns="http://www.w3.org/2000/svg"
 width="570.000000pt" height="428.000000pt" viewBox="0 0 570.000000 428.000000"
 preserveAspectRatio="xMidYMid meet">

<g transform="translate(0.000000,428.000000) scale(0.100000,-0.100000)"
fill="#000000" stroke="none">
<path d="M2093 3745 c-70 -19 -123 -47 -210 -109 -56 -40 -74 -59 -84 -89 -30
-90 -133 -165 -284 -207 -193 -54 -343 -119 -392 -172 -13 -13 -38 -55 -57
-93 -22 -45 -56 -91 -93 -127 -147 -144 -164 -238 -108 -588 19 -121 19 -238
0 -318 -21 -89 -21 -131 1 -191 18 -51 18 -52 -1 -87 -11 -20 -42 -56 -71 -80
-28 -24 -59 -62 -69 -83 -17 -38 -17 -42 0 -93 10 -29 21 -80 25 -113 4 -33
18 -94 31 -135 19 -63 23 -98 23 -220 1 -80 -1 -181 -4 -226 -4 -62 -2 -85 11
-104 14 -22 14 -27 -8 -67 -48 -85 -7 -108 192 -108 91 0 153 6 208 18 72 17
78 21 84 48 6 33 15 35 165 43 90 4 159 23 174 47 8 14 -25 56 -56 69 -16 7
-62 15 -101 18 -71 7 -74 8 -106 50 -65 86 -99 263 -83 436 12 119 45 253 114
448 29 84 56 179 59 210 9 73 40 155 90 239 39 66 39 66 81 63 22 -2 68 -5
101 -8 47 -3 81 -14 153 -51 89 -46 97 -48 210 -56 185 -14 348 -12 552 7 56
5 56 4 67 -28 16 -51 18 -96 17 -503 l-1 -380 -32 -130 c-34 -131 -36 -199
-10 -231 8 -10 7 -24 -5 -55 -15 -38 -15 -43 -1 -65 14 -21 23 -24 78 -24 82
0 97 -10 69 -45 -43 -55 8 -86 154 -93 162 -7 309 27 302 72 -6 39 -48 57
-157 65 -56 4 -107 13 -113 19 -9 9 -4 9 20 3 28 -8 34 -6 52 16 11 14 20 32
20 39 0 18 -55 52 -97 60 -30 6 -32 9 -39 63 -4 31 -1 123 6 205 10 117 18
161 37 202 23 50 32 104 53 309 5 57 27 163 50 245 22 80 40 160 40 178 0 26
6 35 28 45 15 7 56 31 91 55 76 50 109 57 209 46 131 -15 238 -9 337 20 88 26
395 171 395 186 0 5 45 66 100 137 135 174 174 247 176 336 1 57 5 73 26 95
14 15 35 42 47 60 26 37 71 63 153 87 54 15 61 15 111 -1 63 -20 89 -15 136
25 l33 29 -12 54 c-7 29 -15 60 -19 68 -15 31 -117 88 -249 140 -127 51 -137
57 -169 101 -50 71 -104 82 -269 58 -62 -10 -83 -18 -112 -43 -41 -36 -62 -81
-62 -131 0 -21 -10 -51 -25 -73 -34 -53 -44 -109 -45 -251 0 -145 -14 -187
-83 -246 -101 -87 -299 -115 -412 -58 -50 25 -112 92 -203 218 -130 180 -146
193 -372 301 -107 52 -224 103 -260 115 -53 18 -74 32 -115 76 -27 30 -62 76
-76 102 -63 115 -277 195 -416 156z m-1132 -1617 c14 -55 7 -162 -16 -213
l-17 -40 -15 34 c-9 22 -13 54 -10 85 6 69 30 176 39 176 4 0 12 -19 19 -42z
m164 -793 c25 -139 26 -162 20 -322 l-7 -172 31 -40 c38 -48 39 -65 5 -96 -44
-41 -142 -30 -184 20 -7 8 -14 42 -16 73 -2 32 -10 78 -19 101 -18 52 -20 220
-5 338 18 134 48 224 105 318 l30 50 6 -60 c4 -33 19 -127 34 -210z"/>
</g>
</svg>
