<?xml version="1.0" standalone="no"?>
<!DOCTYPE svg PUBLIC "-//W3C//DTD SVG 20010904//EN"
 "http://www.w3.org/TR/2001/REC-SVG-20010904/DTD/svg10.dtd">
<svg version="1.0" xmlns="http://www.w3.org/2000/svg"
 width="1024.000000pt" height="629.000000pt" viewBox="0 0 1024.000000 629.000000"
 preserveAspectRatio="xMidYMid meet">

<g transform="translate(0.000000,629.000000) scale(0.100000,-0.100000)"
fill="#000000" stroke="none">
<path d="M1395 6265 c-290 -80 -370 -96 -497 -102 l-126 -6 -99 53 c-114 61
-149 73 -173 60 -27 -15 -30 -35 -14 -97 55 -211 207 -275 601 -253 97 5 179
8 181 6 2 -3 -55 -42 -126 -89 -156 -102 -199 -139 -271 -237 -231 -315 -358
-448 -589 -621 -172 -130 -265 -221 -278 -275 -13 -53 5 -126 61 -243 31 -64
70 -131 88 -149 109 -115 381 -155 847 -126 313 20 441 9 574 -50 183 -81 340
-240 566 -576 57 -85 156 -227 220 -315 253 -346 320 -481 386 -765 45 -194
105 -297 199 -341 32 -15 64 -19 160 -19 66 0 137 -5 157 -10 59 -17 68 -38
68 -167 0 -125 16 -238 60 -435 17 -72 35 -175 41 -227 20 -174 -5 -429 -58
-574 -52 -146 -99 -199 -252 -281 -152 -82 -210 -148 -211 -238 l0 -36 53 -5
c28 -3 158 -4 287 -3 325 4 328 5 349 161 13 93 32 118 100 129 79 12 95 74
110 411 8 180 14 226 39 325 37 143 98 300 157 405 69 120 67 120 98 23 85
-271 106 -377 114 -583 11 -284 -46 -504 -170 -656 -25 -30 -105 -103 -180
-162 -163 -129 -174 -147 -112 -173 40 -17 142 -18 299 -4 61 5 166 14 233 19
124 10 165 22 211 65 35 31 41 48 57 139 8 45 23 93 33 106 10 14 41 32 70 41
59 19 55 17 71 47 23 45 13 119 -34 244 -36 98 -47 140 -55 229 -6 60 -8 126
-5 147 3 21 10 193 15 383 11 388 23 477 84 607 79 167 219 233 492 233 140 0
259 -17 539 -75 377 -79 543 -97 714 -76 142 18 169 11 254 -66 40 -35 142
-111 228 -169 163 -109 168 -114 204 -217 18 -51 52 -77 101 -77 26 0 56 26
125 109 24 28 32 31 83 31 64 0 106 -18 182 -78 61 -48 87 -62 114 -62 31 0
72 48 93 107 28 79 95 127 169 121 56 -4 75 -33 90 -133 14 -96 -4 -224 -45
-320 -302 -714 -309 -727 -503 -906 -135 -126 -222 -223 -231 -257 -10 -41 17
-55 110 -60 46 -2 120 1 163 6 178 25 353 53 420 67 l71 16 5 93 c3 63 11 106
24 132 18 37 32 48 149 121 62 38 99 152 130 398 20 165 64 345 123 505 45
125 218 480 247 509 14 14 18 13 40 -14 129 -154 219 -353 272 -604 25 -115
27 -145 27 -346 0 -408 -55 -621 -187 -727 -23 -19 -83 -62 -132 -96 -50 -34
-101 -72 -114 -86 -67 -71 66 -126 309 -126 200 0 375 27 462 71 66 34 79 83
64 250 -9 111 0 142 59 197 56 53 58 122 10 311 -45 183 -85 527 -85 750 0
211 18 323 86 533 84 260 77 310 -70 483 -42 50 -88 115 -103 145 -28 55 -28
56 -27 255 0 177 5 228 37 445 47 315 59 470 47 630 -12 152 -31 259 -70 385
-24 79 -65 270 -94 438 -8 44 4 48 34 10 51 -65 83 -172 135 -455 70 -376 91
-657 80 -1032 -4 -138 -8 -309 -9 -381 -1 -126 0 -132 30 -195 17 -36 68 -120
112 -188 139 -208 155 -248 177 -442 24 -214 68 -310 159 -351 50 -23 109 -24
130 -3 24 24 29 56 22 162 -3 53 -9 152 -12 220 l-7 123 34 72 c30 63 34 82
34 152 0 128 -24 167 -220 360 -118 116 -170 175 -190 215 -66 129 -76 253
-45 530 31 277 38 673 16 878 -29 270 -96 476 -208 643 -72 108 -237 267 -317
307 -52 25 -68 27 -231 34 -111 4 -223 15 -305 29 -215 38 -358 32 -910 -40
-204 -27 -1181 -90 -1740 -112 -370 -15 -987 -6 -1200 16 -219 23 -466 60
-745 111 -135 25 -272 50 -305 56 -33 6 -125 11 -205 11 -124 1 -167 -4 -300
-31 -219 -44 -285 -51 -450 -47 -165 4 -283 22 -454 71 -243 70 -258 93 -106
163 36 16 73 37 82 47 56 62 69 234 21 286 -25 28 -51 22 -184 -41 -153 -73
-206 -91 -267 -91 -62 0 -87 22 -152 130 -29 47 -61 96 -73 108 -66 72 -197
89 -352 47z"/>
</g>
</svg>
